<?xml version="1.0" standalone="no"?>
<!DOCTYPE svg PUBLIC "-//W3C//DTD SVG 20010904//EN"
 "http://www.w3.org/TR/2001/REC-SVG-20010904/DTD/svg10.dtd">
<svg version="1.0" xmlns="http://www.w3.org/2000/svg"
 width="512.000000pt" height="512.000000pt" viewBox="0 0 512.000000 512.000000"
 preserveAspectRatio="xMidYMid meet">
<metadata>
Created by potrace 1.11, written by Peter Selinger 2001-2013
</metadata>
<g transform="translate(0.000000,512.000000) scale(0.100000,-0.100000)"
fill="#000000" stroke="none">
<path d="M1635 4556 c-22 -7 -56 -21 -75 -31 -23 -12 -59 -19 -105 -20 -100
-2 -133 -21 -211 -123 -64 -82 -65 -84 -29 -62 l37 23 -16 -32 c-10 -18 -40
-55 -68 -84 -83 -85 -114 -183 -83 -267 43 -117 42 -168 -1 -219 -17 -20 -24
-41 -24 -70 0 -37 22 -111 33 -111 3 0 3 21 1 48 l-5 47 21 -61 c20 -61 31
-75 128 -159 49 -44 58 -88 20 -101 -22 -7 -21 -8 10 -21 18 -7 37 -11 43 -8
5 4 9 47 9 97 0 88 -1 91 -35 130 -47 55 -68 124 -63 200 4 51 9 65 32 85 41
35 105 32 150 -7 62 -55 69 -87 67 -334 -1 -120 3 -235 9 -255 15 -57 145
-175 365 -331 106 -76 166 -96 238 -80 55 11 97 31 117 55 7 9 34 79 60 156
46 139 47 141 28 164 -10 13 -35 29 -56 36 -56 20 -198 17 -253 -4 -47 -18
-59 -33 -79 -100 -15 -49 -36 -69 -64 -61 -51 16 -228 154 -245 190 -14 32
-14 167 1 272 10 74 13 82 33 82 18 0 25 -11 42 -67 l21 -68 -5 64 -6 63 74
-7 c41 -4 90 -14 109 -23 33 -16 35 -20 41 -79 6 -67 17 -86 60 -109 28 -14
114 -19 143 -8 23 9 86 98 86 123 0 17 6 21 33 21 l33 0 11 -72 c9 -60 16 -77
41 -99 28 -25 30 -30 22 -65 -5 -21 -8 -40 -6 -41 1 -1 15 14 32 35 22 29 37
37 63 39 49 2 82 31 115 100 21 43 36 63 50 65 15 2 21 10 21 28 0 21 -8 27
-45 40 -25 8 -46 15 -47 15 -2 1 6 19 17 40 29 56 26 131 -6 208 -15 34 -48
130 -75 212 -26 83 -55 159 -63 170 -26 35 -17 40 16 9 l32 -29 -21 35 c-31
52 -108 106 -193 136 -153 54 -227 86 -300 129 -89 52 -160 70 -250 62 l-65
-6 45 24 c50 27 45 30 -15 11z m286 -656 c19 -19 63 -56 96 -82 60 -46 61 -46
53 -17 -10 34 -14 41 -57 97 -18 24 -33 48 -33 54 0 11 3 9 80 -50 24 -17 73
-41 109 -52 77 -23 116 -47 142 -86 l19 -29 0 31 c0 19 -12 48 -32 75 -17 24
-22 36 -11 27 24 -22 40 -24 23 -3 -7 9 -11 18 -8 21 15 14 118 -156 118 -196
0 -6 -18 -17 -40 -26 -35 -14 -60 -38 -60 -58 0 -3 12 -1 26 4 14 6 27 10 28
10 2 0 3 -13 4 -29 1 -28 -2 -30 -53 -36 -66 -9 -128 1 -180 28 -33 17 -67 22
-195 28 -85 4 -183 13 -217 19 l-63 12 1 52 c0 38 3 46 9 31 6 -15 9 -8 9 28
1 55 9 72 63 140 l38 49 0 -32 c0 -17 -7 -45 -17 -63 -15 -30 -15 -31 1 -18
31 26 66 96 73 147 l6 48 16 -44 c9 -24 32 -60 52 -80z m579 -216 c7 -31 9
-71 5 -90 -5 -30 -10 -34 -36 -34 l-30 0 23 31 c18 24 23 44 23 90 -1 32 0 59
1 59 2 0 8 -25 14 -56z m-874 -32 c-12 -11 -18 7 -10 30 l8 23 4 -23 c2 -13 1
-26 -2 -30z m502 -92 c26 -16 32 -26 32 -52 0 -39 -29 -90 -65 -114 -32 -21
-99 -20 -131 1 -14 9 -30 28 -35 43 -15 38 -5 113 17 129 29 21 143 17 182 -7z
m362 -34 c8 -1 21 -14 29 -28 32 -57 -34 -168 -99 -168 l-33 0 5 83 c5 102 19
131 56 123 15 -4 34 -8 42 -10z m-150 -92 c0 -67 -3 -93 -11 -88 -17 10 -39
70 -39 106 0 34 23 78 41 78 5 0 9 -42 9 -96z m-77 -304 c-3 -14 -15 -50 -27
-80 l-21 -55 -106 0 c-156 1 -185 29 -143 136 19 46 42 59 112 60 26 0 65 3
87 8 34 6 45 3 72 -18 26 -20 31 -30 26 -51z"/>
<path d="M1825 3740 c17 -4 57 -13 89 -20 33 -7 97 -32 143 -56 87 -46 107
-52 119 -32 9 15 -45 61 -110 93 -45 22 -62 25 -160 24 -74 -1 -101 -3 -81 -9z"/>
</g>
</svg>
